<svg width="32" height="32" viewBox="0 0 32 32" fill="none" xmlns="http://www.w3.org/2000/svg">
<mask id="mask0_368_731" style="mask-type:luminance" maskUnits="userSpaceOnUse" x="0" y="0" width="32" height="32">
<path d="M0 0H32V32H0V0Z" fill="white"/>
</mask>
<g mask="url(#mask0_368_731)">
<path fill-rule="evenodd" clip-rule="evenodd" d="M32 15.2889C32 23.7322 24.836 30.5778 16 30.5778C7.164 30.5778 0 23.7322 0 15.2889C0 6.8456 7.164 0 16 0C24.836 0 32 6.8456 32 15.2889ZM16.5733 11.287C15.0178 11.9054 11.9076 13.1854 7.24267 15.1271C6.48533 15.415 6.08844 15.6966 6.052 15.9718C5.99067 16.4381 6.60133 16.6216 7.43067 16.87L7.78133 16.977C8.59867 17.2306 9.69733 17.5274 10.268 17.5389C10.7862 17.5491 11.3649 17.3452 12.004 16.9273C16.3613 14.1159 18.6107 12.6949 18.752 12.6643C18.852 12.6426 18.9907 12.6146 19.084 12.6949C19.1773 12.7739 19.168 12.9242 19.1587 12.965C19.0973 13.2109 16.7053 15.3373 15.4653 16.4381C15.0787 16.7808 14.8053 17.0242 14.7493 17.0802C14.6222 17.2034 14.4969 17.3219 14.3733 17.4357C13.6133 18.1339 13.0453 18.6588 14.4053 19.515C15.0587 19.9265 15.5813 20.2667 16.1027 20.6056C16.672 20.9764 17.24 21.3458 17.976 21.8071C18.1627 21.926 18.3427 22.0449 18.516 22.1638C19.1787 22.6161 19.7747 23.0212 20.5107 22.9575C20.9373 22.9193 21.38 22.5358 21.604 21.3904C22.1333 18.6817 23.176 12.8159 23.4173 10.3977C23.4333 10.197 23.4244 9.9951 23.3907 9.79636C23.372 9.63551 23.29 9.48746 23.1613 9.38228C22.9707 9.23321 22.6747 9.20136 22.5413 9.20391C21.94 9.2141 21.0173 9.52116 16.5733 11.287Z" fill="#FBE0F3"/>
</g>
</svg>
