<svg width="32" height="32" viewBox="0 0 32 32" fill="none" xmlns="http://www.w3.org/2000/svg">
<path d="M15.9788 7.00098C11.1076 7.00098 6.11068 9.82035 2.17693 15.4591C2.06465 15.6218 2.00312 15.8142 2.00012 16.0119C1.99711 16.2095 2.05277 16.4037 2.16006 16.5697C5.18256 21.301 10.1126 25.001 15.9788 25.001C21.7813 25.001 26.8126 21.2897 29.8407 16.5479C29.9455 16.385 30.0012 16.1955 30.0012 16.0019C30.0012 15.8083 29.9455 15.6188 29.8407 15.456C26.8057 10.7685 21.7376 7.00098 15.9788 7.00098Z" stroke="#FBE0F3" stroke-opacity="0.5" stroke-width="1.64088" stroke-linecap="round" stroke-linejoin="round"/>
<path d="M15.998 20.999C18.7595 20.999 20.998 18.7604 20.998 15.999C20.998 13.2376 18.7595 10.999 15.998 10.999C13.2366 10.999 10.998 13.2376 10.998 15.999C10.998 18.7604 13.2366 20.999 15.998 20.999Z" stroke="#FBE0F3" stroke-opacity="0.5" stroke-width="1.64088" stroke-miterlimit="10"/>
<path d="M4 4L28 28" stroke="#FBE0F3" stroke-opacity="0.5" stroke-width="2"/>
</svg>
