<svg width="32" height="32" viewBox="0 0 32 32" fill="none" xmlns="http://www.w3.org/2000/svg">
<path fill-rule="evenodd" clip-rule="evenodd" d="M6.85771 0C5.03939 -1.34078e-07 3.2955 0.722145 2.00951 2.00764C0.723513 3.29315 0.00069828 5.03675 0 6.85507V25.1423C0 26.9611 0.722506 28.7054 2.00858 29.9914C3.29465 31.2775 5.03893 32 6.85771 32H25.1449C26.9632 31.9993 28.7069 31.2765 29.9924 29.9905C31.2779 28.7045 32 26.9606 32 25.1423V6.85507C31.9993 5.03721 31.2769 3.294 29.9914 2.00858C28.706 0.723151 26.9628 0.000697971 25.1449 0H6.85771ZM27.1174 6.86561C27.1174 7.38945 26.9093 7.89184 26.5389 8.26225C26.1685 8.63266 25.6661 8.84075 25.1423 8.84075C24.6185 8.84075 24.1161 8.63266 23.7457 8.26225C23.3752 7.89184 23.1671 7.38945 23.1671 6.86561C23.1671 6.34177 23.3752 5.83938 23.7457 5.46897C24.1161 5.09856 24.6185 4.89046 25.1423 4.89046C25.6661 4.89046 26.1685 5.09856 26.5389 5.46897C26.9093 5.83938 27.1174 6.34177 27.1174 6.86561ZM16.004 10.5209C14.5512 10.5209 13.1579 11.0981 12.1306 12.1253C11.1033 13.1526 10.5262 14.5459 10.5262 15.9987C10.5262 17.4515 11.1033 18.8448 12.1306 19.872C13.1579 20.8993 14.5512 21.4764 16.004 21.4764C17.4567 21.4764 18.85 20.8993 19.8773 19.872C20.9046 18.8448 21.4817 17.4515 21.4817 15.9987C21.4817 14.5459 20.9046 13.1526 19.8773 12.1253C18.85 11.0981 17.4567 10.5209 16.004 10.5209ZM7.89005 15.9987C7.89005 13.8474 8.74463 11.7843 10.2658 10.2632C11.7869 8.74199 13.8501 7.88742 16.0013 7.88742C18.1526 7.88742 20.2157 8.74199 21.7369 10.2632C23.258 11.7843 24.1126 13.8474 24.1126 15.9987C24.1126 18.1499 23.258 20.2131 21.7369 21.7342C20.2157 23.2554 18.1526 24.11 16.0013 24.11C13.8501 24.11 11.7869 23.2554 10.2658 21.7342C8.74463 20.2131 7.89005 18.1499 7.89005 15.9987Z" fill="#FBE0F3"/>
</svg>
