<svg width="32" height="32" viewBox="0 0 32 32" fill="none" xmlns="http://www.w3.org/2000/svg">
<path d="M16.0018 0C18.4562 0.000710219 20.8777 0.565907 23.0787 1.65187C25.2798 2.73784 27.2016 4.31547 28.6953 6.26273C30.189 8.21 31.2148 10.4747 31.6931 12.8817C32.1715 15.2887 32.0897 17.7734 31.454 20.1437C30.8183 22.514 29.6459 24.7064 28.0272 26.5512C26.4086 28.396 24.3873 29.8439 22.1195 30.7827C19.8518 31.7216 17.3984 32.1264 14.9492 31.9657C12.5 31.805 10.1206 31.0831 7.99499 29.856L1.75386 31.9307C1.51911 32.0085 1.26732 32.0196 1.02665 31.9626C0.785969 31.9056 0.565885 31.7828 0.390993 31.608C0.216101 31.4331 0.0932925 31.2131 0.0362936 30.9724C-0.0207054 30.7318 -0.00964873 30.48 0.0682277 30.2453L2.1486 24.008C0.742307 21.5759 0.00126758 18.8165 1.62475e-06 16.0072C-0.00126433 13.1979 0.737287 10.4378 2.14139 8.00449C3.54549 5.57113 5.56565 3.55028 7.99871 2.14517C10.4318 0.740052 13.192 0.000196279 16.0018 0ZM10.4861 8.008C10.2825 8.01429 10.0828 8.06534 9.9012 8.15752C9.71957 8.2497 9.56049 8.38074 9.43524 8.54133C9.07518 8.96267 8.059 9.98933 8.059 12.0747C8.059 14.1627 9.46992 16.1813 9.66728 16.464C9.86199 16.7413 12.4438 21.024 16.3938 22.864C17.1282 23.2053 17.875 23.5031 18.6342 23.7573C19.5784 24.0773 20.4399 24.0347 21.12 23.928C21.8775 23.808 23.4484 22.904 23.7765 21.9093C24.1019 20.9227 24.1019 20.072 24.0032 19.896C23.9045 19.72 23.6431 19.6107 23.2457 19.3947C22.3605 18.9149 21.4641 18.4561 20.5572 18.0187C20.1972 17.8747 19.9331 17.8053 19.6718 18.232C19.4077 18.656 18.6582 19.6133 18.4262 19.896C18.1995 20.1707 17.9674 20.2107 17.5727 20C17.178 19.7893 15.9111 19.3387 14.4068 17.8933C13.5378 17.0262 12.8009 16.036 12.2197 14.9547C11.985 14.528 12.1931 14.3013 12.3878 14.088C12.5665 13.9013 12.7825 13.5947 12.9799 13.344C13.1746 13.104 13.2439 12.9253 13.3746 12.64C13.5053 12.3573 13.4386 12.1067 13.3399 11.8987C13.2413 11.6853 12.4545 9.59467 12.1237 8.744C11.8037 7.91733 11.4809 8.03467 11.2382 8.01867C11.0115 8.008 10.7501 8.008 10.4861 8.008Z" fill="#FBE0F3"/>
</svg>
